<svg width="32" height="32" viewBox="0 0 32 32" fill="none" xmlns="http://www.w3.org/2000/svg">
<circle cx="16" cy="16" r="16" fill="black"/>
<path d="M16 24.3334C15.5417 24.3334 15.1493 24.1702 14.8229 23.8438C14.4965 23.5174 14.3333 23.125 14.3333 22.6667H17.6667C17.6667 23.125 17.5035 23.5174 17.1771 23.8438C16.8507 24.1702 16.4583 24.3334 16 24.3334ZM12.6667 21.8334V20.1667H19.3333V21.8334H12.6667ZM12.875 19.3334C11.9167 18.7639 11.1563 18 10.5938 17.0417C10.0313 16.0834 9.75 15.0417 9.75 13.9167C9.75 12.1806 10.3576 10.7049 11.5729 9.4896C12.7882 8.27433 14.2639 7.66669 16 7.66669C17.7361 7.66669 19.2118 8.27433 20.4271 9.4896C21.6424 10.7049 22.25 12.1806 22.25 13.9167C22.25 15.0417 21.9688 16.0834 21.4063 17.0417C20.8438 18 20.0833 18.7639 19.125 19.3334H12.875ZM13.375 17.6667H18.625C19.25 17.2222 19.7326 16.6736 20.0729 16.0209C20.4132 15.3681 20.5833 14.6667 20.5833 13.9167C20.5833 12.6389 20.1389 11.5556 19.25 10.6667C18.3611 9.7778 17.2778 9.33335 16 9.33335C14.7222 9.33335 13.6389 9.7778 12.75 10.6667C11.8611 11.5556 11.4167 12.6389 11.4167 13.9167C11.4167 14.6667 11.5868 15.3681 11.9271 16.0209C12.2674 16.6736 12.75 17.2222 13.375 17.6667Z" fill="white"/>
</svg>
